<svg width="50" height="50" viewBox="0 0 50 50" fill="none" xmlns="http://www.w3.org/2000/svg">
<path d="M25 25C25 21.6848 26.317 18.5054 28.6612 16.1612C31.0054 13.817 34.1848 12.5 37.5 12.5C40.8152 12.5 43.9946 13.817 46.3388 16.1612C48.683 18.5054 50 21.6848 50 25H25ZM25 25C24.9709 28.3062 23.6446 31.4688 21.3067 33.8067C18.9688 36.1446 15.8062 37.4709 12.5 37.5C9.19379 37.4709 6.03123 36.1446 3.6933 33.8067C1.35536 31.4688 0.0290686 28.3062 0 25H25ZM25 25C21.6938 24.9709 18.5312 23.6446 16.1933 21.3067C13.8554 18.9688 12.5291 15.8062 12.5 12.5C12.5291 9.19379 13.8554 6.03123 16.1933 3.6933C18.5312 1.35536 21.6938 0.0290686 25 0V25ZM25 25C28.3152 25 31.4946 26.317 33.8388 28.6612C36.183 31.0054 37.5 34.1848 37.5 37.5C37.5 40.8152 36.183 43.9946 33.8388 46.3388C31.4946 48.683 28.3152 50 25 50V25Z" fill="black"/>
</svg>
