<svg width="50" height="72" viewBox="0 0 50 72" fill="none" xmlns="http://www.w3.org/2000/svg">
<g clip-path="url(#clip0_3_6)">
<path d="M25 0C18.3696 0 12.0107 2.63392 7.32233 7.32233C2.63392 12.0107 0 18.3696 0 25C0 43.75 25 71.4286 25 71.4286C25 71.4286 50 43.75 50 25C50 18.3696 47.3661 12.0107 42.6777 7.32233C37.9893 2.63392 31.6304 0 25 0ZM25 33.9286C23.2341 33.9286 21.5078 33.4049 20.0396 32.4238C18.5713 31.4428 17.4269 30.0483 16.7511 28.4168C16.0753 26.7853 15.8985 24.9901 16.243 23.2581C16.5875 21.5261 17.4379 19.9352 18.6865 18.6865C19.9352 17.4379 21.5261 16.5875 23.2581 16.243C24.9901 15.8985 26.7853 16.0753 28.4168 16.7511C30.0483 17.4269 31.4428 18.5713 32.4238 20.0396C33.4049 21.5078 33.9286 23.2341 33.9286 25C33.9286 26.1725 33.6976 27.3336 33.2489 28.4168C32.8002 29.5001 32.1425 30.4844 31.3135 31.3135C30.4844 32.1426 29.5001 32.8002 28.4168 33.2489C27.3336 33.6976 26.1725 33.9286 25 33.9286Z" fill="black"/>
</g>
<defs>
<clipPath id="clip0_3_6">
<rect width="50" height="71.4286" fill="white"/>
</clipPath>
</defs>
</svg>
