<svg width="50" height="53" viewBox="0 0 50 53" fill="none" xmlns="http://www.w3.org/2000/svg">
<g clip-path="url(#clip0_3_42)">
<path d="M0 10L17.475 27.5H0V35H24.975L42.475 52.5L45.625 49.375L3.125 6.875L0 10ZM46.25 27.5H50V35H46.25V27.5ZM40 27.5H43.75V35H40V27.5ZM42.125 7.2C42.9176 6.42516 43.5471 5.49955 43.9764 4.47769C44.4058 3.45584 44.6263 2.35839 44.625 1.25H40.875C40.8737 2.47622 40.386 3.65184 39.5189 4.51891C38.6518 5.38598 37.4762 5.87368 36.25 5.875V9.625C37.5761 9.63183 38.8877 9.90095 40.1093 10.4169C41.3309 10.9328 42.4383 11.6853 43.3678 12.6311C44.2973 13.5769 45.0305 14.6972 45.5252 15.9276C46.0198 17.1579 46.2662 18.474 46.25 19.8V25H50V19.8C50.0148 17.1697 49.2826 14.5892 47.8885 12.3587C46.4945 10.1282 44.4958 8.33928 42.125 7.2ZM31.25 16.75H35.075C35.7434 16.7337 36.4078 16.8567 37.026 17.1112C37.6443 17.3656 38.2028 17.746 38.666 18.228C39.1292 18.7101 39.4871 19.2833 39.7167 19.9112C39.9464 20.539 40.0429 21.2078 40 21.875V25H43.75V21.025C43.647 18.8271 42.6752 16.7601 41.0484 15.2786C39.4216 13.7972 37.2729 13.0225 35.075 13.125H31.25C29.9869 13.0384 28.8047 12.4725 27.945 11.5431C27.0853 10.6137 26.6131 9.39098 26.625 8.125C26.6308 7.5308 26.7562 6.94385 26.9938 6.39921C27.2315 5.85457 27.5765 5.3634 28.0082 4.95505C28.4398 4.54669 28.9494 4.22952 29.5064 4.02248C30.0634 3.81543 30.6564 3.72276 31.25 3.75V0C30.1502 -2.3177e-08 29.0611 0.216625 28.045 0.637509C27.0289 1.05839 26.1057 1.67529 25.328 2.45298C24.5503 3.23067 23.9334 4.15392 23.5125 5.17003C23.0916 6.18613 22.875 7.27518 22.875 8.375C22.875 9.47482 23.0916 10.5639 23.5125 11.58C23.9334 12.5961 24.5503 13.5193 25.328 14.297C26.1057 15.0747 27.0289 15.6916 28.045 16.1125C29.0611 16.5334 30.1502 16.75 31.25 16.75ZM37.5 34.825V27.5H30.175L37.5 34.825Z" fill="black"/>
</g>
<defs>
<clipPath id="clip0_3_42">
<rect width="50" height="52.5" fill="white"/>
</clipPath>
</defs>
</svg>
