<svg width="50" height="50" viewBox="0 0 50 50" fill="none" xmlns="http://www.w3.org/2000/svg">
<g clip-path="url(#clip0_50_2)">
<path d="M25 25C27.4723 25 29.889 24.2669 31.9446 22.8934C34.0002 21.5199 35.6024 19.5676 36.5485 17.2835C37.4946 14.9995 37.7421 12.4861 37.2598 10.0614C36.7775 7.63661 35.587 5.40933 33.8388 3.66117C32.0907 1.91301 29.8634 0.722505 27.4386 0.24019C25.0139 -0.242126 22.5005 0.00541601 20.2165 0.951511C17.9324 1.89761 15.9801 3.49976 14.6066 5.55538C13.2331 7.61099 12.5 10.0277 12.5 12.5C12.5 15.8152 13.817 18.9946 16.1612 21.3388C18.5054 23.683 21.6848 25 25 25ZM25 31.25C16.6562 31.25 0 35.4375 0 43.75V50H50V43.75C50 35.4375 33.3438 31.25 25 31.25Z" fill="black"/>
</g>
<defs>
<clipPath id="clip0_50_2">
<rect width="50" height="50" fill="white"/>
</clipPath>
</defs>
</svg>
