<svg width="50" height="45" viewBox="0 0 50 45" fill="none" xmlns="http://www.w3.org/2000/svg">
<g clip-path="url(#clip0_3_44)">
<path d="M50 45C48.0632 45.0309 46.1627 44.473 44.55 43.4C43.7166 42.7921 42.7062 42.4758 41.675 42.5C40.6417 42.4607 39.6265 42.7786 38.8 43.4C37.1742 44.4445 35.2825 44.9999 33.35 44.9999C31.4175 44.9999 29.5258 44.4445 27.9 43.4C27.0666 42.7921 26.0562 42.4758 25.025 42.5C23.9917 42.4607 22.9765 42.7786 22.15 43.4C20.5259 44.4684 18.6189 45.0257 16.675 45C14.7382 45.0309 12.8377 44.473 11.225 43.4C10.397 42.7815 9.38284 42.464 8.35 42.5C7.31716 42.464 6.30296 42.7815 5.475 43.4C3.85088 44.4684 1.94388 45.0257 0 45V40C1.03327 40.0392 2.04853 39.7214 2.875 39.1C4.49912 38.0315 6.40612 37.4742 8.35 37.5C10.2868 37.469 12.1873 38.027 13.8 39.1C14.6265 39.7214 15.6417 40.0392 16.675 40C17.7083 40.0392 18.7235 39.7214 19.55 39.1C21.1741 38.0315 23.0811 37.4742 25.025 37.5C26.9618 37.469 28.8623 38.027 30.475 39.1C31.3084 39.7078 32.3188 40.0241 33.35 40C34.3828 40.0359 35.397 39.7184 36.225 39.1C37.8508 38.0554 39.7425 37.5001 41.675 37.5001C43.6075 37.5001 45.4992 38.0554 47.125 39.1C47.9515 39.7214 48.9667 40.0392 50 40V45ZM50 33.75C48.0632 33.7809 46.1627 33.223 44.55 32.15C43.7166 31.5421 42.7062 31.2258 41.675 31.25C40.6417 31.2108 39.6265 31.5286 38.8 32.15C37.1742 33.1945 35.2825 33.7499 33.35 33.7499C31.4175 33.7499 29.5258 33.1945 27.9 32.15C27.0666 31.5421 26.0562 31.2258 25.025 31.25C23.9917 31.2108 22.9765 31.5286 22.15 32.15C20.5373 33.223 18.6368 33.7809 16.7 33.75C14.7632 33.7809 12.8627 33.223 11.25 32.15C10.4166 31.5421 9.4062 31.2258 8.375 31.25C7.34216 31.214 6.32796 31.5315 5.5 32.15C3.8645 33.2139 1.95098 33.7705 0 33.75V28.75C1.03327 28.7892 2.04853 28.4714 2.875 27.85C4.48768 26.777 6.38821 26.219 8.325 26.25C10.2618 26.219 12.1623 26.777 13.775 27.85C14.6084 28.4578 15.6188 28.7741 16.65 28.75C17.6833 28.7892 18.6985 28.4714 19.525 27.85C21.1377 26.777 23.0382 26.219 24.975 26.25C26.9118 26.219 28.8123 26.777 30.425 27.85C31.2584 28.4578 32.2688 28.7741 33.3 28.75C34.3328 28.7859 35.347 28.4685 36.175 27.85C37.8008 26.8054 39.6925 26.2501 41.625 26.2501C43.5574 26.2501 45.4492 26.8054 47.075 27.85C47.9084 28.4578 48.9188 28.7741 49.95 28.75V33.75H50ZM16.675 22.5C17.7083 22.5392 18.7235 22.2214 19.55 21.6C21.1741 20.5315 23.0811 19.9742 25.025 20C26.9618 19.969 28.8623 20.527 30.475 21.6C31.3084 22.2078 32.3188 22.5241 33.35 22.5C34.3828 22.5359 35.397 22.2185 36.225 21.6C36.525 21.425 36.875 21.225 37.25 21.025L21.2 4.99997C17.325 1.12497 13.75 -0.0250302 7.5 -3.01568e-05V6.24997C9.3415 6.08337 11.1969 6.33401 12.9281 6.98324C14.6594 7.63248 16.2221 8.66361 17.5 9.99997L20 12.5L11.875 20.625C12.5413 20.8988 13.185 21.2248 13.8 21.6C14.6265 22.2214 15.6417 22.5392 16.675 22.5Z" fill="black"/>
<path d="M36.25 12.5C39.7018 12.5 42.5 9.70178 42.5 6.25C42.5 2.79822 39.7018 0 36.25 0C32.7982 0 30 2.79822 30 6.25C30 9.70178 32.7982 12.5 36.25 12.5Z" fill="black"/>
</g>
<defs>
<clipPath id="clip0_3_44">
<rect width="50" height="45" fill="white"/>
</clipPath>
</defs>
</svg>
