<svg width="50" height="63" viewBox="0 0 50 63" fill="none" xmlns="http://www.w3.org/2000/svg">
<g clip-path="url(#clip0_3_22)">
<path d="M16.1563 46.3438C18.5018 48.6893 21.683 50.007 25 50.007C28.3171 50.007 31.4983 48.6893 33.8438 46.3438C36.1893 43.9983 37.507 40.8171 37.507 37.5C37.507 34.183 36.1893 31.0018 33.8438 28.6563L16.1563 46.3438ZM43.75 0.0312885L6.25004 3.85548e-05C5.42847 -0.00285215 4.61444 0.156835 3.85485 0.469903C3.09526 0.782972 2.40512 1.24323 1.82418 1.82418C1.24323 2.40512 0.782971 3.09526 0.469903 3.85485C0.156835 4.61444 -0.00285215 5.42847 3.85548e-05 6.25004V56.25C-0.00285215 57.0716 0.156835 57.8856 0.469903 58.6452C0.782971 59.4048 1.24323 60.095 1.82418 60.6759C2.40512 61.2568 3.09526 61.7171 3.85485 62.0302C4.61444 62.3432 5.42847 62.5029 6.25004 62.5H43.75C44.5716 62.5029 45.3856 62.3432 46.1452 62.0302C46.9048 61.7171 47.595 61.2568 48.1759 60.6759C48.7568 60.095 49.2171 59.4048 49.5302 58.6452C49.8432 57.8856 50.0029 57.0716 50 56.25V6.25004C50.0021 5.43016 49.8417 4.618 49.5279 3.86052C49.2142 3.10304 48.7534 2.41527 48.1722 1.83699C47.591 1.2587 46.9009 0.80136 46.1419 0.491421C45.3828 0.181482 44.5699 0.0250903 43.75 0.0312885ZM18.75 6.25004C19.3681 6.25004 19.9723 6.43332 20.4862 6.7767C21.0001 7.12008 21.4006 7.60813 21.6372 8.17915C21.8737 8.75017 21.9356 9.37851 21.815 9.9847C21.6944 10.5909 21.3968 11.1477 20.9597 11.5847C20.5227 12.0218 19.9659 12.3194 19.3597 12.44C18.7535 12.5606 18.1252 12.4987 17.5542 12.2622C16.9831 12.0256 16.4951 11.6251 16.1517 11.1112C15.8083 10.5973 15.625 9.9931 15.625 9.37504C15.625 8.54624 15.9543 7.75138 16.5403 7.16533C17.1264 6.57928 17.9212 6.25004 18.75 6.25004ZM9.37504 6.25004C9.9931 6.25004 10.5973 6.43332 11.1112 6.7767C11.6251 7.12008 12.0256 7.60813 12.2622 8.17915C12.4987 8.75017 12.5606 9.37851 12.44 9.9847C12.3194 10.5909 12.0218 11.1477 11.5847 11.5847C11.1477 12.0218 10.5909 12.3194 9.9847 12.44C9.3785 12.5606 8.75017 12.4987 8.17915 12.2622C7.60813 12.0256 7.12008 11.6251 6.7767 11.1112C6.43332 10.5973 6.25004 9.9931 6.25004 9.37504C6.25004 8.54624 6.57928 7.75138 7.16533 7.16533C7.75138 6.57928 8.54624 6.25004 9.37504 6.25004ZM25 56.25C21.2916 56.25 17.6665 55.1504 14.5831 53.0901C11.4997 51.0298 9.09644 48.1015 7.6773 44.6754C6.25815 41.2492 5.88684 37.4792 6.61031 33.8421C7.33379 30.205 9.11955 26.864 11.7418 24.2418C14.364 21.6196 17.705 19.8338 21.3421 19.1103C24.9792 18.3868 28.7492 18.7582 32.1754 20.1773C35.6015 21.5964 38.5298 23.9997 40.5901 27.0831C42.6504 30.1665 43.75 33.7916 43.75 37.5C43.75 42.4728 41.7746 47.242 38.2583 50.7583C34.742 54.2746 29.9728 56.25 25 56.25Z" fill="black"/>
</g>
<defs>
<clipPath id="clip0_3_22">
<rect width="50" height="62.5" fill="white"/>
</clipPath>
</defs>
</svg>
