<svg width="59" height="69" viewBox="0 0 59 69" fill="none" xmlns="http://www.w3.org/2000/svg">
<g clip-path="url(#clip0_40_18)">
<path d="M29.5 68.8333C37.3239 68.8333 44.8273 65.7253 50.3596 60.193C55.892 54.6607 59 47.1572 59 39.3333C51.1761 39.3333 43.6727 42.4414 38.1403 47.9737C32.608 53.506 29.5 61.0094 29.5 68.8333ZM8.52222 30.3194C8.52077 31.8145 8.92835 33.2814 9.70084 34.5615C10.4733 35.8415 11.5813 36.8857 12.9047 37.5812C14.2281 38.2767 15.7166 38.5969 17.209 38.507C18.7013 38.4172 20.1406 37.9209 21.3711 37.0717L21.3056 37.6944C21.3056 39.8677 22.1689 41.952 23.7057 43.4888C25.2424 45.0255 27.3267 45.8889 29.5 45.8889C31.6733 45.8889 33.7576 45.0255 35.2943 43.4888C36.8311 41.952 37.6944 39.8677 37.6944 37.6944L37.6289 37.0717C38.9949 38.0201 40.6204 38.5238 42.2833 38.5139C44.143 38.5189 45.9489 37.8897 47.4028 36.7301C48.8567 35.5705 49.8718 33.9499 50.2805 32.1356C50.6892 30.3213 50.467 28.422 49.6507 26.751C48.8344 25.08 47.4728 23.7373 45.7906 22.9444C46.8285 22.4695 47.7559 21.7829 48.5131 20.9288C49.2703 20.0746 49.8406 19.0716 50.1877 17.9842C50.5347 16.8967 50.6507 15.7487 50.5282 14.6138C50.4057 13.4789 50.0475 12.3822 49.4765 11.3938C48.9055 10.4054 48.1343 9.54718 47.2123 8.8742C46.2903 8.20121 45.2378 7.72828 44.1224 7.4857C43.007 7.24313 41.8532 7.23627 40.735 7.46557C39.6168 7.69486 38.5588 8.15525 37.6289 8.81722L37.6944 8.19444C37.6944 6.02114 36.8311 3.93685 35.2943 2.4001C33.7576 0.863341 31.6733 0 29.5 0C27.3267 0 25.2424 0.863341 23.7057 2.4001C22.1689 3.93685 21.3056 6.02114 21.3056 8.19444L21.3711 8.81722C20.0051 7.86876 18.3796 7.36509 16.7167 7.375C14.857 7.36995 13.0511 7.99916 11.5972 9.15875C10.1433 10.3184 9.12822 11.939 8.71953 13.7533C8.31085 15.5675 8.53298 17.4669 9.34927 19.1379C10.1656 20.8089 11.5272 22.1516 13.2094 22.9444C11.8097 23.6034 10.626 24.6464 9.79619 25.9521C8.96636 27.2578 8.52455 28.7724 8.52222 30.3194ZM29.5 14.75C31.1207 14.75 32.705 15.2306 34.0526 16.131C35.4002 17.0314 36.4505 18.3112 37.0707 19.8086C37.6909 21.3059 37.8532 22.9535 37.537 24.5431C37.2208 26.1327 36.4404 27.5928 35.2943 28.7388C34.1483 29.8848 32.6882 30.6652 31.0987 30.9814C29.5091 31.2976 27.8615 31.1353 26.3641 30.5151C24.8668 29.8949 23.587 28.8446 22.6866 27.497C21.7861 26.1495 21.3056 24.5651 21.3056 22.9444C21.3056 20.7711 22.1689 18.6869 23.7057 17.1501C25.2424 15.6133 27.3267 14.75 29.5 14.75ZM0 39.3333C0 47.1572 3.10803 54.6607 8.64035 60.193C14.1727 65.7253 21.6761 68.8333 29.5 68.8333C29.5 61.0094 26.392 53.506 20.8596 47.9737C15.3273 42.4414 7.82389 39.3333 0 39.3333Z" fill="white"/>
</g>
<defs>
<clipPath id="clip0_40_18">
<rect width="59" height="68.8333" fill="white"/>
</clipPath>
</defs>
</svg>
