<svg width="50" height="40" viewBox="0 0 50 40" fill="none" xmlns="http://www.w3.org/2000/svg">
<path d="M45 0H5C3.67825 0.00660881 2.4129 0.536309 1.48062 1.47328C0.548335 2.41024 0.0249835 3.67824 0.025 5L0 35C0.00395682 36.3249 0.532012 37.5943 1.46884 38.5312C2.40566 39.468 3.67513 39.996 5 40H45C46.3249 39.996 47.5943 39.468 48.5312 38.5312C49.468 37.5943 49.996 36.3249 50 35V5C49.996 3.67513 49.468 2.40566 48.5312 1.46884C47.5943 0.532012 46.3249 0.00395682 45 0ZM45 10L25 22.5L5 10V5L25 17.5L45 5V10Z" fill="white"/>
</svg>
