<svg width="50" height="43" viewBox="0 0 50 43" fill="none" xmlns="http://www.w3.org/2000/svg">
<path d="M1.62722 38.0424H48.4714V42.9734H1.62722V38.0424ZM49.8767 14.9655C49.7509 14.4958 49.5337 14.0554 49.2375 13.6698C48.9412 13.2841 48.5719 12.9606 48.1505 12.7179C47.7291 12.4751 47.264 12.3179 46.7818 12.2551C46.2996 12.1923 45.8097 12.2253 45.3402 12.3521L32.2485 15.8531L15.2367 0L10.4783 1.2574L20.6854 18.9349L8.43195 22.214L3.57495 18.4172L0 19.3787L4.48718 27.1696L6.3856 30.4487L10.3304 29.3886L23.4221 25.8876L34.1469 23.0276L47.2387 19.5266C48.1894 19.2654 48.9992 18.6405 49.4929 17.787C49.9866 16.9334 50.1244 15.9199 49.8767 14.9655Z" fill="white"/>
</svg>
