<svg width="50" height="40" viewBox="0 0 50 40" fill="none" xmlns="http://www.w3.org/2000/svg">
<path d="M22.5 32.5H27.5V30H30C30.6631 30 31.299 29.7366 31.7678 29.2678C32.2366 28.799 32.5 28.1631 32.5 27.5V20C32.5 19.337 32.2366 18.7011 31.7678 18.2323C31.299 17.7634 30.6631 17.5 30 17.5H22.5V15H32.5V10H27.5V7.50003H22.5V10H20C19.337 10 18.7011 10.2634 18.2323 10.7323C17.7634 11.2011 17.5 11.837 17.5 12.5V20C17.5 20.6631 17.7634 21.299 18.2323 21.7678C18.7011 22.2366 19.337 22.5 20 22.5H27.5V25H17.5V30H22.5V32.5ZM45 3.08439e-05H5.00003C4.34413 -0.00164005 3.6944 0.126732 3.08842 0.377724C2.48243 0.628716 1.93222 0.997347 1.46959 1.4623C1.00696 1.92726 0.641088 2.47931 0.393137 3.08655C0.145186 3.69378 0.0200722 4.34414 0.0250308 5.00003L3.08439e-05 35C-0.00228172 35.6573 0.125468 36.3085 0.375923 36.9162C0.626377 37.5239 0.994586 38.076 1.45934 38.5407C1.92409 39.0055 2.47621 39.3737 3.08388 39.6241C3.69155 39.8746 4.34277 40.0023 5.00003 40H45C45.6573 40.0023 46.3085 39.8746 46.9162 39.6241C47.5239 39.3737 48.076 39.0055 48.5407 38.5407C49.0055 38.076 49.3737 37.5239 49.6241 36.9162C49.8746 36.3085 50.0023 35.6573 50 35V5.00003C50.0023 4.34277 49.8746 3.69155 49.6241 3.08388C49.3737 2.47621 49.0055 1.92409 48.5407 1.45934C48.076 0.994587 47.5239 0.626377 46.9162 0.375923C46.3085 0.125468 45.6573 -0.00228172 45 3.08439e-05ZM45 35H5.00003V5.00003H45V35Z" fill="white"/>
</svg>
