<svg width="50" height="50" viewBox="0 0 50 50" fill="none" xmlns="http://www.w3.org/2000/svg">
<path d="M50 22.5H39.575L47.675 14.4L44.15 10.85L32.5 22.5H27.5V17.5L39.15 5.85L35.6 2.325L27.5 10.425V0H22.5V10.425L14.4 2.325L10.85 5.85L22.5 17.5V22.5H17.5L5.85 10.85L2.325 14.4L10.425 22.5H0V27.5H10.425L2.325 35.6L5.85 39.15L17.5 27.5H22.5V32.5L10.85 44.15L14.4 47.675L22.5 39.575V50H27.5V39.575L35.6 47.675L39.15 44.15L27.5 32.5V27.5H32.5L44.15 39.15L47.675 35.6L39.575 27.5H50V22.5Z" fill="white"/>
</svg>
