<svg width="50" height="50" viewBox="0 0 50 50" fill="none" xmlns="http://www.w3.org/2000/svg">
<path d="M10.0556 21.6389C14.0822 29.5127 20.4873 35.9177 28.3611 39.9444L34.4722 33.8333C34.8356 33.4694 35.2933 33.2141 35.7939 33.0963C36.2945 32.9785 36.8181 33.0029 37.3056 33.1667C40.5059 34.2182 43.8535 34.7527 47.2222 34.75C47.9589 34.75 48.6655 35.0427 49.1864 35.5636C49.7073 36.0845 50 36.7911 50 37.5278V47.2222C50 47.9589 49.7073 48.6655 49.1864 49.1864C48.6655 49.7073 47.9589 50 47.2222 50C34.6981 50 22.687 45.0248 13.8311 36.1689C4.97518 27.313 0 15.3019 0 2.77778C0 2.04107 0.292658 1.33453 0.813592 0.813592C1.33453 0.292658 2.04107 0 2.77778 0H12.5C13.2367 0 13.9433 0.292658 14.4642 0.813592C14.9851 1.33453 15.2778 2.04107 15.2778 2.77778C15.2728 6.14666 15.8074 9.4946 16.8611 12.6944C17.0195 13.1847 17.0384 13.7093 16.9158 14.2096C16.7931 14.71 16.5338 15.1664 16.1667 15.5278L10.0556 21.6389Z" fill="white"/>
</svg>
