<svg width="50" height="50" viewBox="0 0 50 50" fill="none" xmlns="http://www.w3.org/2000/svg">
<g clip-path="url(#clip0_40_24)">
<path d="M44.4444 3.4271e-05H0V27.7778C0 30.7247 1.17063 33.5508 3.25437 35.6346C5.33811 37.7183 8.16426 38.8889 11.1111 38.8889H27.7778C30.7246 38.8889 33.5508 37.7183 35.6345 35.6346C37.7183 33.5508 38.8889 30.7247 38.8889 27.7778V19.4445H44.4444C45.9179 19.4445 47.3309 18.8592 48.3728 17.8173C49.4147 16.7754 50 15.3623 50 13.8889V5.55559C50.0026 4.8253 49.8606 4.10173 49.5823 3.42653C49.3041 2.75134 48.8949 2.13788 48.3785 1.62149C47.8622 1.1051 47.2487 0.695975 46.5735 0.417692C45.8983 0.139409 45.1747 -0.00253524 44.4444 3.4271e-05ZM44.4444 13.8889H38.8889V5.55559H44.4444V13.8889ZM0 44.4445H44.4444V50H0V44.4445Z" fill="white"/>
</g>
<defs>
<clipPath id="clip0_40_24">
<rect width="50" height="50" fill="white"/>
</clipPath>
</defs>
</svg>
