<svg width="51" height="51" viewBox="0 0 51 51" fill="none" xmlns="http://www.w3.org/2000/svg">
<path d="M28.1329 32.1143L32.106 28.1412L50.0072 46.0424L46.0341 50.0072L28.1329 32.1143ZM40.0605 16.1941L48.0068 8.24792C42.7428 2.97689 35.6021 0.0104462 28.1527 2.75366e-05C20.7034 -0.0103911 13.5544 2.93606 8.2757 8.19235C13.7925 6.42633 19.6935 6.23985 25.3109 7.654C30.9282 9.06815 36.0375 12.0265 40.0605 16.1941ZM8.19235 8.2757C2.93606 13.5544 -0.0103911 20.7034 2.75366e-05 28.1527C0.0104462 35.6021 2.97689 42.7428 8.24792 48.0068L16.1941 40.0605C12.0265 36.0375 9.06815 30.9282 7.654 25.3109C6.23985 19.6935 6.42633 13.7925 8.19235 8.2757ZM8.24792 8.22013L8.22013 8.24792C7.16434 16.6109 11.4709 27.3633 20.1672 36.0874L36.0874 20.1672C27.3911 11.4709 16.6109 7.16434 8.24792 8.22013Z" fill="white"/>
</svg>
