<svg width="50" height="35" viewBox="0 0 50 35" fill="none" xmlns="http://www.w3.org/2000/svg">
<g clip-path="url(#clip0_40_13)">
<path d="M13.6364 18.1818C14.9849 18.1818 16.3031 17.7819 17.4243 17.0327C18.5456 16.2836 19.4195 15.2187 19.9355 13.9728C20.4516 12.727 20.5866 11.3561 20.3235 10.0335C20.0605 8.71088 19.4111 7.49599 18.4575 6.54245C17.504 5.58891 16.2891 4.93955 14.9665 4.67646C13.6439 4.41338 12.273 4.54841 11.0272 5.06446C9.7813 5.58051 8.71644 6.45441 7.96725 7.57566C7.21806 8.6969 6.81818 10.0151 6.81818 11.3636C6.81818 13.1719 7.53652 14.9062 8.81518 16.1848C10.0938 17.4635 11.8281 18.1818 13.6364 18.1818ZM40.9091 4.54545H22.7273V20.4545H4.54545V0H0V34.0909H4.54545V27.2727H45.4545V34.0909H50V13.6364C50 11.2253 49.0422 8.913 47.3373 7.20812C45.6325 5.50324 43.3201 4.54545 40.9091 4.54545Z" fill="white"/>
</g>
<defs>
<clipPath id="clip0_40_13">
<rect width="50" height="34.0909" fill="white"/>
</clipPath>
</defs>
</svg>
