<svg width="50" height="45" viewBox="0 0 50 45" fill="none" xmlns="http://www.w3.org/2000/svg">
<g clip-path="url(#clip0_40_20)">
<path d="M44.2222 2.8056C43.9409 1.98407 43.409 1.27149 42.7014 0.768185C41.9938 0.264883 41.1461 -0.00377656 40.2778 4.0109e-05H9.72222C8.85447 -0.00128465 8.00795 0.268348 7.30083 0.771306C6.5937 1.27426 6.06124 1.98545 5.77778 2.8056L0 19.4445V41.6667C0 42.4034 0.292658 43.11 0.813592 43.6309C1.33453 44.1518 2.04107 44.4445 2.77778 44.4445H5.55556C6.29227 44.4445 6.99881 44.1518 7.51974 43.6309C8.04067 43.11 8.33333 42.4034 8.33333 41.6667V38.8889H41.6667V41.6667C41.6667 42.4034 41.9593 43.11 42.4803 43.6309C43.0012 44.1518 43.7077 44.4445 44.4444 44.4445H47.2222C47.9589 44.4445 48.6655 44.1518 49.1864 43.6309C49.7073 43.11 50 42.4034 50 41.6667V19.4445L44.2222 2.8056ZM9.72222 30.5556C8.89813 30.5556 8.09255 30.3112 7.40735 29.8534C6.72214 29.3955 6.18809 28.7448 5.87272 27.9834C5.55736 27.2221 5.47484 26.3843 5.63562 25.576C5.79639 24.7678 6.19322 24.0254 6.77594 23.4426C7.35866 22.8599 8.10109 22.4631 8.90935 22.3023C9.7176 22.1415 10.5554 22.2241 11.3167 22.5394C12.0781 22.8548 12.7288 23.3888 13.1867 24.0741C13.6445 24.7593 13.8889 25.5648 13.8889 26.3889C13.8889 27.494 13.4499 28.5538 12.6685 29.3352C11.8871 30.1166 10.8273 30.5556 9.72222 30.5556ZM40.2778 30.5556C39.4537 30.5556 38.6481 30.3112 37.9629 29.8534C37.2777 29.3955 36.7436 28.7448 36.4283 27.9834C36.1129 27.2221 36.0304 26.3843 36.1912 25.576C36.3519 24.7678 36.7488 24.0254 37.3315 23.4426C37.9142 22.8599 38.6566 22.4631 39.4649 22.3023C40.2732 22.1415 41.1109 22.2241 41.8723 22.5394C42.6336 22.8548 43.2844 23.3888 43.7422 24.0741C44.2001 24.7593 44.4444 25.5648 44.4444 26.3889C44.4444 27.494 44.0055 28.5538 43.2241 29.3352C42.4426 30.1166 41.3828 30.5556 40.2778 30.5556ZM5.55556 16.6667L9.72222 4.16671H40.2778L44.4444 16.6667H5.55556Z" fill="white"/>
</g>
<defs>
<clipPath id="clip0_40_20">
<rect width="50" height="44.4444" fill="white"/>
</clipPath>
</defs>
</svg>
