<svg width="50" height="36" viewBox="0 0 50 36" fill="none" xmlns="http://www.w3.org/2000/svg">
<path d="M33.8636 1.23816C33.6768 1.23957 33.4934 1.28825 33.3305 1.37965C33.1675 1.47105 33.0304 1.6022 32.9318 1.76089L32.7727 2.1018L21 28.5791C20.6197 29.2438 20.4162 29.995 20.4091 30.7609C20.4079 31.8884 20.8244 32.9763 21.5781 33.8148C22.3318 34.6533 23.3694 35.183 24.4906 35.3016C25.6118 35.4202 26.7372 35.1194 27.6497 34.4572C28.5622 33.7949 29.197 32.8182 29.4318 31.7154L29.4545 31.6473L35 2.37453C35 2.07314 34.8803 1.78411 34.6672 1.571C34.4541 1.35789 34.165 1.23816 33.8636 1.23816ZM0 10.3291L4.54545 14.8745C7.64377 11.7701 11.4107 9.41496 15.5585 7.98905C19.7062 6.56313 24.125 6.10418 28.4773 6.64725L31.1818 0.556345C25.5815 -0.450209 19.8208 -0.0871429 14.3911 1.61457C8.96148 3.31628 4.02404 6.30613 0 10.3291ZM45.4545 14.8745L50 10.3291C46.4063 6.73195 42.0704 3.96291 37.2955 2.21544L36.0909 8.62453C39.5944 10.0687 42.777 12.1929 45.4545 14.8745ZM36.3636 23.9654L40.9091 19.42C39.146 17.663 37.103 16.2113 34.8636 15.1245L33.6136 21.7609C34.6065 22.3953 35.5284 23.1344 36.3636 23.9654ZM9.09091 19.42L13.6364 23.9654C16.1159 21.4975 19.3304 19.9022 22.7955 19.42L25.7045 12.8745C22.6349 12.7712 19.5767 13.2988 16.719 14.4246C13.8614 15.5504 11.2652 17.2506 9.09091 19.42Z" fill="white"/>
</svg>
